<svg id="Layer_1" data-name="Layer 1" xmlns="http://www.w3.org/2000/svg" viewBox="0 0 26.3 27.7"><title>icone</title><path d="M14.1,12.5a.4.4,0,0,0,.4.4H19a.1.1,0,0,1,.1-.1h0a.1.1,0,0,1-.1-.1h0L14.7,8h0l-.6-.7Zm-2.3,2.3H7.3l4.9,5V15.1C12.2,14.9,12.1,14.8,11.8,14.8Zm10-2h4.1a.1.1,0,0,0,.1-.1h0a.1.1,0,0,0-.1-.1h0L14.1.3V1.5L24.7,12.1H22.3L14.1,3.9V5l7.7,7.8ZM3.9,12.3H3.8c0,.1,0,.1.1.1H7.8l4.4-4.4V7.3L7.4,12.1H5.1L12.2,5V3.9L3.9,12.2Zm.5,2.6H.2a.1.1,0,0,0,.1.1H.4L12.2,27.3V26.2L1.6,15.6H4l8.2,8.2V22.7L4.4,14.9Zm18,.5h-.2c0-.1,0-.1-.1-.1H18.5l-4.4,4.4v1.1l4.8-4.9h2.3l-7.1,7.2v1.1l8.3-8.4ZM.3,12.8a.4.4,0,0,0,.6,0L12.2,1.5V.3L.3,12.2A.6.6,0,0,0,.3,12.8ZM26,14.9l-.3-.2-.3.2L14.1,26.2v1.1L26,15.4A.5.5,0,0,0,26,14.9Z" fill="#fff"/></svg>